<svg width="47" height="47" viewBox="0 0 47 47" fill="none" xmlns="http://www.w3.org/2000/svg">
<path d="M23.292 0.202881C10.4482 0.202881 0.0419922 10.7029 0.0419922 23.4529C0.0419922 36.2966 10.4482 46.7029 23.292 46.7029C36.042 46.7029 46.542 36.2966 46.542 23.4529C46.542 10.7029 36.042 0.202881 23.292 0.202881ZM23.292 43.7029C12.1357 43.7029 3.04199 34.7029 3.04199 23.4529C3.04199 12.3904 12.042 3.20288 23.292 3.20288C34.3545 3.20288 43.542 12.2966 43.542 23.4529C43.542 34.6091 34.4482 43.7029 23.292 43.7029ZM36.5107 18.0154C36.9795 17.5466 36.9795 16.7966 36.5107 16.4216L35.7607 15.5779C35.292 15.1091 34.542 15.1091 34.167 15.5779L18.792 30.7654L12.3232 24.2966C11.9482 23.8279 11.1982 23.8279 10.7295 24.2966L9.97949 25.0466C9.51074 25.5154 9.51074 26.1716 9.97949 26.6404L18.042 34.7966C18.417 35.1716 19.167 35.1716 19.6357 34.7966L36.5107 18.0154Z" fill="#E27730"/>
</svg>
