<svg width="49" height="37" viewBox="0 0 49 37" fill="none" xmlns="http://www.w3.org/2000/svg">
<path d="M44.383 0.808105H5.383C2.85175 0.808105 0.882996 2.87061 0.882996 5.30811V32.3081C0.882996 34.8394 2.85175 36.8081 5.383 36.8081H44.383C46.8205 36.8081 48.883 34.8394 48.883 32.3081V5.30811C48.883 2.87061 46.8205 0.808105 44.383 0.808105ZM5.383 3.80811H44.383C45.133 3.80811 45.883 4.55811 45.883 5.30811V9.24561C43.8205 10.9331 40.8205 13.3706 31.7267 20.5894C30.133 21.9019 27.0392 24.9019 24.883 24.8081C22.633 24.9019 19.5392 21.9019 17.9455 20.5894C8.85175 13.3706 5.85175 10.9331 3.883 9.24561V5.30811C3.883 4.55811 4.53925 3.80811 5.383 3.80811ZM44.383 33.8081H5.383C4.53925 33.8081 3.883 33.1519 3.883 32.3081V13.0894C5.9455 14.8706 9.3205 17.5894 16.0705 22.9331C18.0392 24.5269 21.4142 27.9019 24.883 27.8081C28.258 27.9019 31.633 24.5269 33.6017 22.9331C40.3517 17.5894 43.7267 14.8706 45.883 13.0894V32.3081C45.883 33.1519 45.133 33.8081 44.383 33.8081Z" fill="#E27730"/>
</svg>
