<svg width="54" height="36" viewBox="0 0 54 36" fill="none" xmlns="http://www.w3.org/2000/svg">
<path d="M27 21C30.2812 21 33 18.375 33 15C33 11.7188 30.2812 9 27 9C26.9062 9 26.8125 9.09375 26.7188 9.09375C26.8125 9.46875 27 10.125 27 10.5938C27 13.0312 24.9375 15.0938 22.5 15.0938C22.0312 15.0938 21.375 14.9062 21 14.8125C21 14.9062 21 15 21 15C21 18.375 23.625 21 27 21ZM53.625 16.6875C48.5625 6.75 38.4375 0 27 0C15.4688 0 5.34375 6.75 0.28125 16.6875C0.09375 17.0625 0 17.625 0 18.0938C0 18.4688 0.09375 19.0312 0.28125 19.4062C5.34375 29.3438 15.4688 36 27 36C38.4375 36 48.5625 29.3438 53.625 19.4062C53.8125 19.0312 53.9062 18.4688 53.9062 18C53.9062 17.625 53.8125 17.0625 53.625 16.6875ZM27 3C33.5625 3 39 8.4375 39 15C39 21.6562 33.5625 27 27 27C20.3438 27 15 21.6562 15 15C15 8.4375 20.3438 3.09375 27 3ZM27 33C16.875 33 7.6875 27.2812 3 18C5.25 13.5938 10.6875 8.15625 15.0938 5.90625C13.125 8.4375 12 11.625 12 15C12 23.3438 18.6562 30 27 30C35.25 30 42 23.3438 42 15C42 11.625 40.7812 8.4375 38.8125 5.90625C43.2188 8.15625 48.6562 13.5938 51 18C46.2188 27.2812 37.0312 33 27 33Z" fill="#E27730"/>
</svg>