<svg width="49" height="37" viewBox="0 0 49 37" fill="none" xmlns="http://www.w3.org/2000/svg">
<path d="M44.389 0.452881H5.38898C2.85773 0.452881 0.888977 2.51538 0.888977 4.95288V31.9529C0.888977 34.4841 2.85773 36.4529 5.38898 36.4529H44.389C46.8265 36.4529 48.889 34.4841 48.889 31.9529V4.95288C48.889 2.51538 46.8265 0.452881 44.389 0.452881ZM45.889 31.9529C45.889 32.7966 45.139 33.4529 44.389 33.4529H5.38898C4.54523 33.4529 3.88898 32.7966 3.88898 31.9529V4.95288C3.88898 4.20288 4.54523 3.45288 5.38898 3.45288H44.389C45.139 3.45288 45.889 4.20288 45.889 4.95288V31.9529ZM11.389 16.2029C14.2015 16.2029 16.639 13.8591 16.639 10.9529C16.639 8.14038 14.2015 5.70288 11.389 5.70288C8.48273 5.70288 6.13898 8.14038 6.13898 10.9529C6.13898 13.8591 8.48273 16.2029 11.389 16.2029ZM11.389 8.70288C12.6077 8.70288 13.639 9.73413 13.639 10.9529C13.639 12.2654 12.6077 13.2029 11.389 13.2029C10.0765 13.2029 9.13898 12.2654 9.13898 10.9529C9.13898 9.73413 10.0765 8.70288 11.389 8.70288ZM30.7952 10.9529L21.889 19.8591L18.889 16.9529C18.0452 16.0154 16.639 16.0154 15.7952 16.9529L7.54523 25.2029C7.17023 25.4841 6.88898 26.2341 6.88898 26.7029V29.3279C6.88898 29.9841 7.35773 30.4529 8.01398 30.4529H41.764C42.3265 30.4529 42.889 29.9841 42.889 29.3279V20.7029C42.889 20.1404 42.6077 19.5779 42.139 19.2029L33.889 10.9529C33.0452 10.0154 31.639 10.0154 30.7952 10.9529ZM39.889 27.4529H9.88898V27.0779L17.389 19.5779L21.889 24.0779L32.389 13.5779L39.889 21.0779V27.4529Z" fill="#E27730"/>
</svg>
