<svg width="48" height="48" viewBox="0 0 48 48" fill="none" xmlns="http://www.w3.org/2000/svg">
<path d="M42.6562 0C41.1562 0 39.75 0.65625 38.7188 1.6875C18.2812 19.875 15.8438 20.3438 16.7812 26.4375C12.9375 26.9062 9.46875 28.7812 7.40625 34.125C7.125 34.7812 6.5625 35.1562 5.90625 35.1562C4.6875 35.1562 1.03125 32.25 0 31.5C0 40.3125 4.03125 48 13.6875 48C24.6562 48 27.9375 39.8438 27.2812 34.4062C32.5312 33.75 36.375 28.5 46.5938 9.375C47.3438 7.96875 48 6.46875 48 4.875C48 2.0625 45.375 0 42.6562 0ZM22.125 41.8125C20.25 43.9688 17.4375 45 13.6875 45C7.6875 45 4.96875 41.4375 3.84375 37.6875C4.59375 37.9688 5.25 38.1562 5.90625 38.1562C7.78125 38.1562 9.5625 37.0312 10.2188 35.1562C10.875 33.5625 11.7188 30.0938 18.0938 29.3438L24.1875 34.125C24.5625 36.9375 24.0938 39.5625 22.125 41.8125ZM43.9688 7.96875C32.8125 28.6875 30.4688 30.9375 25.7812 31.5L19.9688 27C19.125 21.75 18.5625 23.7188 40.7812 3.84375C41.3438 3.375 42 3 42.6562 3C43.7812 3 45 3.75 45 4.875C45 5.90625 44.4375 7.03125 43.9688 7.96875Z" fill="#E27730"/>
</svg>
