<svg width="43" height="43" viewBox="0 0 43 43" fill="none" xmlns="http://www.w3.org/2000/svg">
<path d="M38.407 0.808105H5.40698C2.87573 0.808105 0.906982 2.87061 0.906982 5.30811V38.3081C0.906982 40.8394 2.87573 42.8081 5.40698 42.8081H38.407C40.8445 42.8081 42.907 40.8394 42.907 38.3081V5.30811C42.907 2.87061 40.8445 0.808105 38.407 0.808105ZM39.907 38.3081C39.907 39.1519 39.157 39.8081 38.407 39.8081H5.40698C4.56323 39.8081 3.90698 39.1519 3.90698 38.3081V5.30811C3.90698 4.55811 4.56323 3.80811 5.40698 3.80811H38.407C39.157 3.80811 39.907 4.55811 39.907 5.30811V38.3081ZM13.657 18.8081H12.157C11.6882 18.8081 11.407 19.1831 11.407 19.5581V33.0581C11.407 33.5269 11.6882 33.8081 12.157 33.8081H13.657C14.032 33.8081 14.407 33.5269 14.407 33.0581V19.5581C14.407 19.1831 14.032 18.8081 13.657 18.8081ZM22.657 9.80811H21.157C20.6882 9.80811 20.407 10.1831 20.407 10.5581V33.0581C20.407 33.5269 20.6882 33.8081 21.157 33.8081H22.657C23.032 33.8081 23.407 33.5269 23.407 33.0581V10.5581C23.407 10.1831 23.032 9.80811 22.657 9.80811ZM31.657 24.8081H30.157C29.6882 24.8081 29.407 25.1831 29.407 25.5581V33.0581C29.407 33.5269 29.6882 33.8081 30.157 33.8081H31.657C32.032 33.8081 32.407 33.5269 32.407 33.0581V25.5581C32.407 25.1831 32.032 24.8081 31.657 24.8081Z" fill="#E27730"/>
</svg>
