<svg width="48" height="47" viewBox="0 0 48 47" fill="none" xmlns="http://www.w3.org/2000/svg">
<path d="M16.34 18.7654C17.465 18.7654 18.4962 19.5154 19.2462 20.7341L20.1837 22.3279C20.3712 22.7029 20.7462 22.7966 21.0275 22.7029C21.3087 22.6091 21.59 22.3279 21.59 21.9529C21.215 18.0154 18.4962 15.2029 16.34 15.2029C14.09 15.2029 11.3712 18.0154 11.09 21.9529C10.9962 22.3279 11.2775 22.6091 11.5587 22.7029C11.9337 22.7966 12.3087 22.7029 12.4962 22.3279L13.34 20.7341C14.09 19.5154 15.1212 18.7654 16.34 18.7654ZM23.84 0.202881C10.9962 0.202881 0.589966 10.6091 0.589966 23.4529C0.589966 36.2966 10.9962 46.7029 23.84 46.7029C36.6837 46.7029 47.09 36.2966 47.09 23.4529C47.09 10.6091 36.6837 0.202881 23.84 0.202881ZM23.84 43.7029C12.59 43.7029 3.58997 34.7029 3.58997 23.4529C3.58997 12.2966 12.59 3.20288 23.84 3.20288C34.9962 3.20288 44.09 12.2966 44.09 23.4529C44.09 34.7029 34.9962 43.7029 23.84 43.7029ZM31.34 15.2029C29.09 15.2029 26.3712 18.0154 26.09 21.9529C25.9962 22.3279 26.2775 22.6091 26.5587 22.7029C26.9337 22.7966 27.3087 22.7029 27.4962 22.3279L28.34 20.7341C29.09 19.5154 30.1212 18.7654 31.34 18.7654C32.465 18.7654 33.4962 19.5154 34.2462 20.7341L35.1837 22.3279C35.3712 22.7029 35.7462 22.7966 36.0275 22.7029C36.3087 22.6091 36.59 22.3279 36.59 21.9529C36.215 18.0154 33.4962 15.2029 31.34 15.2029ZM32.2775 30.0154C30.1212 32.5466 27.0275 33.9529 23.84 33.9529C20.5587 33.9529 17.465 32.5466 15.3087 30.0154C14.84 29.3591 13.9025 29.3591 13.2462 29.8279C12.59 30.3904 12.4962 31.3279 13.0587 31.9841C15.6837 35.1716 19.6212 36.9529 23.84 36.9529C27.965 36.9529 31.9025 35.1716 34.5275 31.9841C35.09 31.3279 34.9962 30.3904 34.34 29.8279C33.6837 29.3591 32.7462 29.3591 32.2775 30.0154Z" fill="#E27730"/>
</svg>
