<svg width="16" height="16" viewBox="0 0 16 16" fill="none" xmlns="http://www.w3.org/2000/svg">
<path d="M7.14162 0.532985L5.18862 4.49298L0.819619 5.12998C0.642885 5.15578 0.476896 5.23053 0.340432 5.34576C0.203968 5.46099 0.102476 5.61211 0.0474332 5.78202C-0.00760945 5.95194 -0.0140049 6.13386 0.028972 6.30722C0.0719489 6.48058 0.162583 6.63846 0.29062 6.76298L3.45162 9.84298L2.70062 14.194C2.6703 14.3699 2.68986 14.5509 2.75708 14.7163C2.8243 14.8817 2.9365 15.025 3.08097 15.1299C3.22544 15.2348 3.3964 15.2972 3.57449 15.3099C3.75258 15.3226 3.93068 15.2853 4.08862 15.202L8.00062 13.148L11.9096 15.203C12.0678 15.2868 12.2462 15.3245 12.4248 15.312C12.6033 15.2994 12.7747 15.2371 12.9196 15.132C13.0645 15.0269 13.177 14.8833 13.2443 14.7175C13.3117 14.5517 13.3312 14.3703 13.3006 14.194L12.5486 9.84298L15.7096 6.76298C15.8377 6.63846 15.9283 6.48058 15.9713 6.30722C16.0142 6.13386 16.0078 5.95194 15.9528 5.78202C15.8978 5.61211 15.7963 5.46099 15.6598 5.34576C15.5233 5.23053 15.3574 5.15578 15.1806 5.12998L10.8116 4.49298L8.85862 0.532985C8.77939 0.372991 8.65703 0.238321 8.50533 0.144167C8.35364 0.0500132 8.17866 0.00012207 8.00012 0.00012207C7.82158 0.00012207 7.6466 0.0500132 7.4949 0.144167C7.34321 0.238321 7.22085 0.372991 7.14162 0.532985Z" fill="#FDB82C"/>
</svg>
