<svg width="48" height="48" viewBox="0 0 48 48" fill="none" xmlns="http://www.w3.org/2000/svg">
<path d="M9 40.5C9.75 40.5 10.5 39.8438 10.5 39C10.5 38.25 9.75 37.5 9 37.5C8.15625 37.5 7.5 38.25 7.5 39C7.5 39.8438 8.15625 40.5 9 40.5ZM45 30H30.6562L40.7812 19.9688C41.9062 18.75 41.9062 16.875 40.7812 15.75L32.25 7.21875C31.6875 6.65625 30.9375 6.375 30.1875 6.375C29.4375 6.375 28.5938 6.65625 28.0312 7.21875L18 17.3438V3C18 1.40625 16.5938 0 15 0H3C1.3125 0 0 1.40625 0 3V39C0 44.0625 3.9375 48 9 48H45C46.5938 48 48 46.6875 48 45V33C48 31.4062 46.5938 30 45 30ZM15 39C15 42.375 12.2812 45 9 45C5.625 45 3 42.375 3 39V27H15V39ZM15 24H3V15H15V24ZM15 12H3V3H15V12ZM18 21.5625L30.1875 9.375L38.625 17.8125L18 38.5312V21.5625ZM45 45H15.6562L27.6562 33H45V45Z" fill="#E27730"/>
</svg>
